<svg viewBox="0 0 96 96" xmlns="http://www.w3.org/2000/svg" xmlns:xlink="http://www.w3.org/1999/xlink" id="Icons_ThumbsDown" overflow="hidden"><path d="M88 49C87.9901 52.3096 85.3096 54.9901 82 55L63 55C61.3934 55.0283 60.0828 56.2953 60 57.9 60.1 59.7 63 63.3 63 77 63 80.3137 60.3137 83 57 83 53.6863 83 51 80.3137 51 77 51 61.8 33.3 53.2 33 53L33 21C40.1 21 40.6 13 54 13L72 13C75.3096 13.0099 77.9901 15.6904 78 19 78.0232 20.4937 77.4469 21.9344 76.4 23L77 23C80.3096 23.0099 82.9901 25.6904 83 29 83.0149 30.5705 82.4031 32.0821 81.3 33.2 84.5213 33.9007 86.5646 37.0801 85.8638 40.3014 85.6053 41.4898 84.9899 42.5709 84.1 43.4 86.4632 44.2414 88.0303 46.4917 88 49Z"/><path d="M23 58 8 58 8 16 23 16C25.2064 16.0066 26.9934 17.7936 27 20L27 54C26.9934 56.2064 25.2064 57.9934 23 58Z"/></svg>