<svg viewBox="0 0 96 96" xmlns="http://www.w3.org/2000/svg" xmlns:xlink="http://www.w3.org/1999/xlink" id="Icons_Suitcase" overflow="hidden"><g><path d="M12 26C9.8 26 8 27.8 8 30L8 78C8 80.2 9.8 82 12 82L20 82 20 26 12 26Z"/><path d="M84 26 76 26 76 82 84 82C86.2 82 88 80.2 88 78L88 30C88 27.8 86.2 26 84 26Z"/><path d="M61 26 61 21C61 17.1 57.9 14 54 14L48 14 42 14C38.1 14 35 17.1 35 21L35 26 24 26 24 82 72 82 72 26 61 26ZM55 26 41 26 41 21C41 20.4 41.4 20 42 20L48 20 54 20C54.6 20 55 20.4 55 21L55 26Z"/></g></svg>